HIERARCHY
ROOT Root
{
  OFFSET 0.0 0.0 0.0
  CHANNELS 6 Xposition Yposition Zposition Zrotation Yrotation Xrotation
  JOINT Hips
  {
    OFFSET 0.0 100.0 0.0
    CHANNELS 6 Xposition Yposition Zposition Zrotation Yrotation Xrotation
    JOINT Spine1
    {
      OFFSET -0.013727 5.003763 -0.053727
      CHANNELS 3 Zrotation Yrotation Xrotation
      JOINT Spine2
      {
        OFFSET -0.0 7.125301 -0.029825
        CHANNELS 3 Zrotation Yrotation Xrotation
        JOINT Chest
        {
          OFFSET -1e-06 7.550063 -0.815971
          CHANNELS 3 Zrotation Yrotation Xrotation
          JOINT Neck1
          {
            OFFSET -0.181677 26.311295 -0.553348
            CHANNELS 3 Zrotation Yrotation Xrotation
            JOINT Neck2
            {
              OFFSET -3e-06 7.709397 2.302585
              CHANNELS 3 Zrotation Yrotation Xrotation
              JOINT Head
              {
                OFFSET -5e-06 6.128916 1.953709
                CHANNELS 3 Zrotation Yrotation Xrotation
                JOINT HeadEnd
                {
                  OFFSET 0.003598 16.065403 -1.835379
                  CHANNELS 3 Zrotation Yrotation Xrotation
                }
                JOINT Jaw
                {
                  OFFSET 0.002637 0.475592 3.094941
                  CHANNELS 3 Zrotation Yrotation Xrotation
                }
                JOINT LeftEye
                {
                  OFFSET 3.206381 5.380205 7.586883
                  CHANNELS 3 Zrotation Yrotation Xrotation
                }
                JOINT RightEye
                {
                  OFFSET -3.22244 5.361869 7.558234
                  CHANNELS 3 Zrotation Yrotation Xrotation
                }
              }
            }
          }
          JOINT LeftShoulder
          {
            OFFSET 1.621652 23.237164 5.113413
            CHANNELS 3 Zrotation Yrotation Xrotation
            JOINT LeftArm
            {
              OFFSET 14.919846 2e-06 -5.502326
              CHANNELS 3 Zrotation Yrotation Xrotation
              JOINT LeftForeArm
              {
                OFFSET 28.739307 0.0 -0.002588
                CHANNELS 3 Zrotation Yrotation Xrotation
                JOINT LeftHand
                {
                  OFFSET 27.093981 -1e-06 0.002609
                  CHANNELS 3 Zrotation Yrotation Xrotation
                  JOINT LeftHandThumb1
                  {
                    OFFSET 2.276482 -1.392045 3.191413
                    CHANNELS 3 Zrotation Yrotation Xrotation
                    JOINT LeftHandThumb2
                    {
                      OFFSET 4.012836 -1.828127 1.641654
                      CHANNELS 3 Zrotation Yrotation Xrotation
                      JOINT LeftHandThumb3
                      {
                        OFFSET 2.798515 0.0 -3e-06
                        CHANNELS 3 Zrotation Yrotation Xrotation
                        JOINT LeftHandThumbEnd
                        {
                          OFFSET 3.180793 -4e-06 4e-06
                          CHANNELS 3 Zrotation Yrotation Xrotation
                        }
                      }
                    }
                  }
                  JOINT LeftHandIndex1
                  {
                    OFFSET 3.247555 -0.531998 2.296169
                    CHANNELS 3 Zrotation Yrotation Xrotation
                    JOINT LeftHandIndex2
                    {
                      OFFSET 6.364578 0.01206 0.1786
                      CHANNELS 3 Zrotation Yrotation Xrotation
                      JOINT LeftHandIndex3
                      {
                        OFFSET 3.662364 0.0 0.0
                        CHANNELS 3 Zrotation Yrotation Xrotation
                        JOINT LeftHandIndex4
                        {
                          OFFSET 2.329242 4e-06 4e-06
                          CHANNELS 3 Zrotation Yrotation Xrotation
                          JOINT LeftHandIndexEnd
                          {
                            OFFSET 2.759615 -0.180537 -0.113024
                            CHANNELS 3 Zrotation Yrotation Xrotation
                          }
                        }
                      }
                    }
                  }
                  JOINT LeftHandMiddle1
                  {
                    OFFSET 3.163495 0.240981 1.000332
                    CHANNELS 3 Zrotation Yrotation Xrotation
                    JOINT LeftHandMiddle2
                    {
                      OFFSET 6.19078 -0.259278 -1.002548
                      CHANNELS 3 Zrotation Yrotation Xrotation
                      JOINT LeftHandMiddle3
                      {
                        OFFSET 4.35652 -4e-06 -1e-06
                        CHANNELS 3 Zrotation Yrotation Xrotation
                        JOINT LeftHandMiddle4
                        {
                          OFFSET 2.996877 -8e-06 0.0
                          CHANNELS 3 Zrotation Yrotation Xrotation
                          JOINT LeftHandMiddleEnd
                          {
                            OFFSET 2.304287 -0.294569 -0.031741
                            CHANNELS 3 Zrotation Yrotation Xrotation
                          }
                        }
                      }
                    }
                  }
                  JOINT LeftHandRing1
                  {
                    OFFSET 2.882643 -0.053652 -0.322543
                    CHANNELS 3 Zrotation Yrotation Xrotation
                    JOINT LeftHandRing2
                    {
                      OFFSET 5.854541 -0.486202 -1.373841
                      CHANNELS 3 Zrotation Yrotation Xrotation
                      JOINT LeftHandRing3
                      {
                        OFFSET 4.350578 0.0 3e-06
                        CHANNELS 3 Zrotation Yrotation Xrotation
                        JOINT LeftHandRing4
                        {
                          OFFSET 2.651321 7e-06 2e-06
                          CHANNELS 3 Zrotation Yrotation Xrotation
                          JOINT LeftHandRingEnd
                          {
                            OFFSET 1.936105 0.077687 -7.1e-05
                            CHANNELS 3 Zrotation Yrotation Xrotation
                          }
                        }
                      }
                    }
                  }
                  JOINT LeftHandPinky1
                  {
                    OFFSET 2.8655 -0.310005 -1.600378
                    CHANNELS 3 Zrotation Yrotation Xrotation
                    JOINT LeftHandPinky2
                    {
                      OFFSET 5.087849 -1.331141 -1.77123
                      CHANNELS 3 Zrotation Yrotation Xrotation
                      JOINT LeftHandPinky3
                      {
                        OFFSET 3.070974 4e-06 0.0
                        CHANNELS 3 Zrotation Yrotation Xrotation
                        JOINT LeftHandPinky4
                        {
                          OFFSET 1.549672 0.0 1e-06
                          CHANNELS 3 Zrotation Yrotation Xrotation
                          JOINT LeftHandPinkyEnd
                          {
                            OFFSET 1.944893 -0.157802 0.057219
                            CHANNELS 3 Zrotation Yrotation Xrotation
                          }
                        }
                      }
                    }
                  }
                }
              }
            }
          }
          JOINT RightShoulder
          {
            OFFSET -1.380118 23.180309 5.214158
            CHANNELS 3 Zrotation Yrotation Xrotation
            JOINT RightArm
            {
              OFFSET -15.037196 1.2e-05 -5.545604
              CHANNELS 3 Zrotation Yrotation Xrotation
              JOINT RightForeArm
              {
                OFFSET -28.736639 2e-06 -0.002597
                CHANNELS 3 Zrotation Yrotation Xrotation
                JOINT RightHand
                {
                  OFFSET -27.133619 -0.0 0.002613
                  CHANNELS 3 Zrotation Yrotation Xrotation
                  JOINT RightHandThumb1
                  {
                    OFFSET -2.274032 -1.383988 3.163127
                    CHANNELS 3 Zrotation Yrotation Xrotation
                    JOINT RightHandThumb2
                    {
                      OFFSET -4.011429 -1.827466 1.640914
                      CHANNELS 3 Zrotation Yrotation Xrotation
                      JOINT RightHandThumb3
                      {
                        OFFSET -2.794935 -4e-06 -3e-06
                        CHANNELS 3 Zrotation Yrotation Xrotation
                        JOINT RightHandThumbEnd
                        {
                          OFFSET -3.183852 4e-06 1e-06
                          CHANNELS 3 Zrotation Yrotation Xrotation
                        }
                      }
                    }
                  }
                  JOINT RightHandIndex1
                  {
                    OFFSET -3.253266 -0.520057 2.282866
                    CHANNELS 3 Zrotation Yrotation Xrotation
                    JOINT RightHandIndex2
                    {
                      OFFSET -6.341917 0.012471 0.178266
                      CHANNELS 3 Zrotation Yrotation Xrotation
                      JOINT RightHandIndex3
                      {
                        OFFSET -3.654871 -8e-06 -0.0
                        CHANNELS 3 Zrotation Yrotation Xrotation
                        JOINT RightHandIndex4
                        {
                          OFFSET -2.327586 0.0 1e-06
                          CHANNELS 3 Zrotation Yrotation Xrotation
                          JOINT RightHandIndexEnd
                          {
                            OFFSET -2.76179 -0.180656 -0.113078
                            CHANNELS 3 Zrotation Yrotation Xrotation
                          }
                        }
                      }
                    }
                  }
                  JOINT RightHandMiddle1
                  {
                    OFFSET -3.168106 0.246593 1.00103
                    CHANNELS 3 Zrotation Yrotation Xrotation
                    JOINT RightHandMiddle2
                    {
                      OFFSET -6.180828 -0.258836 -1.000895
                      CHANNELS 3 Zrotation Yrotation Xrotation
                      JOINT RightHandMiddle3
                      {
                        OFFSET -4.348901 0.0 -0.0
                        CHANNELS 3 Zrotation Yrotation Xrotation
                        JOINT RightHandMiddle4
                        {
                          OFFSET -3.00024 -4e-06 -2e-06
                          CHANNELS 3 Zrotation Yrotation Xrotation
                          JOINT RightHandMiddleEnd
                          {
                            OFFSET -2.30252 -0.29437 -0.031706
                            CHANNELS 3 Zrotation Yrotation Xrotation
                          }
                        }
                      }
                    }
                  }
                  JOINT RightHandRing1
                  {
                    OFFSET -2.88569 -0.067952 -0.308858
                    CHANNELS 3 Zrotation Yrotation Xrotation
                    JOINT RightHandRing2
                    {
                      OFFSET -5.854198 -0.48613 -1.373731
                      CHANNELS 3 Zrotation Yrotation Xrotation
                      JOINT RightHandRing3
                      {
                        OFFSET -4.33881 -4e-06 -0.0
                        CHANNELS 3 Zrotation Yrotation Xrotation
                        JOINT RightHandRing4
                        {
                          OFFSET -2.654903 -4e-06 4e-06
                          CHANNELS 3 Zrotation Yrotation Xrotation
                          JOINT RightHandRingEnd
                          {
                            OFFSET -1.933568 0.077527 -5.2e-05
                            CHANNELS 3 Zrotation Yrotation Xrotation
                          }
                        }
                      }
                    }
                  }
                  JOINT RightHandPinky1
                  {
                    OFFSET -2.866425 -0.342796 -1.584145
                    CHANNELS 3 Zrotation Yrotation Xrotation
                    JOINT RightHandPinky2
                    {
                      OFFSET -5.091371 -1.332055 -1.772385
                      CHANNELS 3 Zrotation Yrotation Xrotation
                      JOINT RightHandPinky3
                      {
                        OFFSET -3.062664 -4e-06 1e-06
                        CHANNELS 3 Zrotation Yrotation Xrotation
                        JOINT RightHandPinky4
                        {
                          OFFSET -1.546529 4e-06 -2e-06
                          CHANNELS 3 Zrotation Yrotation Xrotation
                          JOINT RightHandPinkyEnd
                          {
                            OFFSET -1.945119 -0.157718 0.057211
                            CHANNELS 3 Zrotation Yrotation Xrotation
                          }
                        }
                      }
                    }
                  }
                }
              }
            }
          }
        }
      }
    }
    JOINT LeftLeg
    {
      OFFSET 10.043214 -8.434526 2.595655
      CHANNELS 3 Zrotation Yrotation Xrotation
      JOINT LeftShin
      {
        OFFSET -1e-06 -43.221752 -0.802913
        CHANNELS 3 Zrotation Yrotation Xrotation
        JOINT LeftFoot
        {
          OFFSET 1e-06 -42.155094 -3.481523
          CHANNELS 3 Zrotation Yrotation Xrotation
          JOINT LeftToeBase
          {
            OFFSET 0.0 -5.059472 13.231529
            CHANNELS 3 Zrotation Yrotation Xrotation
            JOINT LeftToeEnd
            {
              OFFSET -0.009607 -1.647619 6.513017
              CHANNELS 3 Zrotation Yrotation Xrotation
            }
          }
        }
      }
    }
    JOINT RightLeg
    {
      OFFSET -10.047278 -8.29526 2.620317
      CHANNELS 3 Zrotation Yrotation Xrotation
      JOINT RightShin
      {
        OFFSET 1e-06 -43.362206 -0.805556
        CHANNELS 3 Zrotation Yrotation Xrotation
        JOINT RightFoot
        {
          OFFSET 2e-06 -42.117393 -3.478398
          CHANNELS 3 Zrotation Yrotation Xrotation
          JOINT RightToeBase
          {
            OFFSET -0.0 -5.079609 13.284196
            CHANNELS 3 Zrotation Yrotation Xrotation
            JOINT RightToeEnd
            {
              OFFSET 0.009532 -1.634378 6.460591
              CHANNELS 3 Zrotation Yrotation Xrotation
            }
          }
        }
      }
    }
  }
}
MOTION
Frames: 5
Frame Time: 0.03333333333333333
0.0 0.0 0.0 0.0 -0.0 0.0 1.829421 95.765015 -6.720411 -2.182833 0.391455 7.288028 2.756398 0.352195 -1.325907 0.087354 1.125564 -5.075771 3.609406 -0.947079 11.473073 -3.869813 4.266078 2.359818 -0.506625 1.376065 -3.710503 -0.584533 0.679881 -10.728354 7.7e-05 -2.3e-05 6e-06 0.021043 -0.014767 -0.005693 0.675784 -3.786634 -10.726294 -0.641798 3.762924 -10.718661 -8.643635 -2.054382 13.171915 -75.137566 5.971215 7.719065 0.570651 -27.596663 0.08101 -5.82567 10.517723 -0.630934 -5.882109 9.861286 0.70259 -10.93688 -0.360578 7.15621 3e-06 8.774826 -0.0 -16.216879 18.373455 6.813254 -1.844033 2.498506 -2.507278 -10.163606 4.678946 4.62111 -20.976038 -6e-06 5e-06 -21.226301 2.451696 -3.593997 2e-06 -5e-06 -1e-06 -1.362682 2.240798 -0.746323 -21.334929 0.584908 3.008326 -13.821223 -3e-06 4e-06 -23.887184 -0.24908 -0.83948 -60.895344 2.448857 -0.655366 -0.294025 1.679687 0.833256 -14.218221 0.093213 1.300582 -34.212082 -0.287566 0.967178 -20.03323 0.964537 1.212847 -1e-06 -0.0 1e-06 -3.440391 0.788234 0.501655 -15.9282 -3.167313 2.99971 -6.338833 -2e-06 2e-06 -18.123459 3.648181 -4.905669 -4e-06 0.0 -2e-06 17.363647 12.896195 16.930496 50.977768 10.761824 9.92242 -0.430241 34.567684 -0.248209 4.084954 -9.833053 -4.937847 2.243541 -5.255036 -3.180157 14.282894 -0.82659 6.952504 -7e-06 -12.690605 2e-06 16.244213 -17.824492 2.395662 1.665666 -1.955921 -2.878299 4.727798 -4.170586 4.993925 11.020529 6e-06 -0.0 12.109054 -3.735713 -2.866783 -0.0 -0.0 -0.0 1.291985 -1.928549 -1.49809 14.800134 0.567473 3.865607 14.242576 -1.341732 -6.660657 19.631973 0.14393 -0.648243 50.033649 -0.66291 -6.312324 0.353029 -1.511151 -0.03194 20.222801 3.684317 2.316631 18.787281 1.1e-05 3e-06 10.751633 -0.479864 1.397908 1e-06 0.0 -0.0 3.273808 0.305948 -0.580112 21.486828 11.830384 2.266132 8.16293 4e-06 1e-06 18.399084 -3.798983 -4.940573 3e-06 -0.0 0.0 -0.601146 11.287297 -35.105618 -0.072304 -0.049845 1.580435 -9.882162 6.379525 3.875383 1.610589 -2.047029 -7.206362 -0.0 0.0 1e-06 -1.098065 -0.213327 11.591366 -0.147466 0.343005 11.43815 3.548926 3.334675 -4.499982 -1.412753 0.764553 -11.104042 0.0 0.0 -1e-06 
0.0 0.0 0.0 0.0 -0.0 0.0 2.852566 95.368904 -2.820348 -0.744684 0.187275 8.12384 1.280053 0.217928 -1.787075 -0.147624 1.074531 -5.260458 2.908149 -1.289042 11.405937 -2.898555 3.949479 1.404467 -0.437927 1.499459 -3.777602 -0.111928 0.610418 -10.963771 7.7e-05 -2.3e-05 6e-06 0.012009 -0.057785 -0.026447 0.670261 -3.813768 -10.67855 -0.653032 3.703289 -10.660941 -8.943284 -2.755867 13.175649 -73.483452 5.500581 7.029335 0.218536 -27.435978 0.130043 -5.487996 10.485172 -0.8108 -5.882109 9.861286 0.702591 -10.936875 -0.360575 7.156208 1e-06 8.774826 -1e-06 -16.22341 18.443995 7.00806 -1.844033 2.498504 -2.507278 -10.163605 4.678946 4.62111 -20.976038 -4e-06 4e-06 -21.226299 2.451697 -3.593998 2e-06 -5e-06 -0.0 -1.362682 2.240799 -0.746324 -21.334923 0.584908 3.008324 -13.82122 -3e-06 3e-06 -23.887182 -0.24908 -0.839482 -61.368008 2.416663 -0.49258 -0.294025 1.679688 0.833256 -14.218214 0.093216 1.30058 -34.212063 -0.287566 0.967172 -20.033224 0.964536 1.212846 -0.0 -0.0 -0.0 -3.44039 0.788234 0.501656 -15.928194 -3.16731 2.999709 -6.338829 -2e-06 1e-06 -18.123453 3.648182 -4.905671 -5e-06 1e-06 -2e-06 18.526871 12.137578 16.938984 50.698341 9.53836 11.332097 -0.880992 33.730675 -0.368074 4.732095 -9.766831 -5.51274 2.243544 -5.255039 -3.180159 14.282902 -0.826596 6.952503 -3e-06 -12.690612 1e-06 16.199375 -17.585264 2.37942 1.665668 -1.955922 -2.878298 4.727802 -4.17059 4.993929 11.020535 3e-06 -3e-06 12.10906 -3.735718 -2.866787 -0.0 1e-06 -1e-06 1.291987 -1.92855 -1.49809 14.800139 0.567467 3.865607 14.242582 -1.341737 -6.660661 19.631985 0.143926 -0.648247 49.90736 -0.573625 -6.2071 0.353029 -1.511152 -0.031939 20.222805 3.68431 2.316631 18.787287 4e-06 -1e-06 10.751636 -0.479869 1.397907 1e-06 1e-06 1e-06 3.273809 0.305947 -0.580113 21.486828 11.830383 2.266133 8.162933 1e-06 -1e-06 18.399097 -3.798987 -4.94058 2e-06 -1e-06 -2e-06 -1.866493 9.207178 -36.341953 -0.058558 -0.074158 5.876077 -5.700543 5.218317 5.254416 1.688588 -2.045583 -7.654539 0.0 0.0 2e-06 -3.675745 -1.050975 10.492653 -0.086489 0.590581 16.47353 3.778389 4.139511 -3.075692 -1.440107 0.763407 -16.284868 -0.0 0.0 -1e-06 
0.0 0.0 0.0 0.0 -0.0 0.0 3.868622 95.233398 1.336879 1.571052 0.425345 8.506248 -0.694746 -0.061835 -2.04092 -0.538885 0.901315 -5.429085 1.501894 -1.640916 11.305881 -0.941992 3.318982 1.028255 -0.537037 1.452639 -3.793041 0.528247 0.50297 -11.602723 7.7e-05 -2.3e-05 6e-06 0.014785 -0.047214 -0.038651 0.682187 -3.795741 -10.656894 -0.658313 3.706984 -10.644964 -8.133103 -4.020543 13.407576 -72.043648 4.366682 7.391031 0.010579 -27.012829 0.161257 -5.196599 9.710017 -2.393521 -5.882111 9.861293 0.702591 -10.93688 -0.360574 7.156209 0.0 8.774831 -1e-06 -16.224152 18.506884 6.997744 -1.844034 2.498505 -2.507279 -10.163608 4.678949 4.62111 -20.976038 -1e-06 1e-06 -21.226303 2.4517 -3.594003 2e-06 -6e-06 -1e-06 -1.362683 2.2408 -0.746324 -21.334929 0.584909 3.008325 -13.821225 -1e-06 2e-06 -23.887188 -0.249078 -0.839483 -61.211918 2.518759 -0.511607 -0.294025 1.679687 0.833256 -14.218219 0.093216 1.300581 -34.212074 -0.287561 0.967171 -20.03323 0.964538 1.212844 -1e-06 -0.0 -0.0 -3.440391 0.788234 0.501656 -15.9282 -3.167311 2.999709 -6.33883 -1e-06 1e-06 -18.123461 3.648184 -4.905673 -7e-06 0.0 -0.0 19.055939 10.939221 16.625019 52.006962 8.157871 11.558661 -0.923115 32.767677 -0.282404 3.925839 -9.821743 -5.096903 2.243542 -5.255038 -3.180156 14.282894 -0.826596 6.952501 -1e-06 -12.690608 -0.0 16.366259 -17.720177 2.380358 1.665667 -1.955922 -2.878299 4.727799 -4.170588 4.993925 11.020528 2e-06 -1e-06 12.109053 -3.735717 -2.866785 0.0 -0.0 0.0 1.291986 -1.92855 -1.498089 14.800131 0.567466 3.865608 14.242576 -1.341738 -6.660661 19.631973 0.143924 -0.648248 50.134285 -0.565934 -6.336944 0.353029 -1.511151 -0.031939 20.222794 3.684309 2.316629 18.787273 4e-06 -2e-06 10.75163 -0.479869 1.397906 -1e-06 1e-06 -1e-06 3.273807 0.305947 -0.580111 21.486813 11.830376 2.266131 8.16293 1e-06 -2e-06 18.399084 -3.798988 -4.940577 3e-06 -0.0 -1e-06 -4.167821 7.186477 -37.369297 -0.004673 -0.064724 11.493176 -1.704803 3.668782 8.629932 1.74759 -2.025952 -7.083774 0.0 -0.0 3e-06 -6.988098 -2.288729 8.221619 -0.142061 0.853146 24.88413 3.955589 4.813137 0.686812 -1.54795 0.841734 -23.816565 -0.0 -0.0 -1e-06 
0.0 0.0 0.0 0.0 -0.0 0.0 4.776057 95.302849 5.779007 3.565179 0.866185 7.932472 -2.220844 -0.218254 -1.627785 -0.996818 0.58216 -5.351989 -0.009225 -1.791497 10.974808 1.077682 2.6322 1.378196 -0.627622 1.150423 -3.701303 0.985846 0.64533 -12.626686 7.7e-05 -2.3e-05 6e-06 0.015589 -0.033105 -0.037386 0.701316 -3.765637 -10.616291 -0.675185 3.703052 -10.597498 -6.009508 -5.723991 14.042768 -71.455757 2.492476 8.565808 -0.153074 -26.860203 0.145947 -5.088449 8.847991 -4.232217 -5.882111 9.861295 0.702591 -10.936878 -0.360574 7.156209 -0.0 8.774831 -1e-06 -16.407602 18.639385 6.779301 -1.844034 2.498507 -2.507278 -10.163607 4.678949 4.621109 -20.97604 -2e-06 1e-06 -21.226303 2.4517 -3.594004 0.0 -7e-06 0.0 -1.362682 2.2408 -0.746324 -21.334929 0.584911 3.008323 -13.821224 -1e-06 1e-06 -23.887188 -0.249078 -0.839486 -61.016575 2.608793 -0.651121 -0.294025 1.679689 0.833256 -14.218219 0.093216 1.300582 -34.212074 -0.287562 0.96717 -20.033226 0.964538 1.212843 -1e-06 0.0 -0.0 -3.440391 0.788234 0.501657 -15.9282 -3.167311 2.999708 -6.33883 -1e-06 1e-06 -18.123459 3.648185 -4.905674 -7e-06 -0.0 -1e-06 17.841667 9.518954 16.173107 55.352318 6.608977 10.846796 -0.706531 32.24733 -0.061328 2.299296 -9.916453 -5.793498 2.243544 -5.255041 -3.18016 14.282904 -0.826596 6.952507 -3e-06 -12.690616 2e-06 16.401953 -17.656561 2.400826 1.665668 -1.955923 -2.8783 4.727803 -4.170592 4.993928 11.020538 3e-06 -3e-06 12.109062 -3.735719 -2.866789 0.0 -1e-06 0.0 1.291987 -1.928551 -1.498088 14.800142 0.567468 3.865608 14.242585 -1.341738 -6.660664 19.631987 0.143927 -0.648246 50.061462 -0.390784 -6.41956 0.353029 -1.511152 -0.03194 20.222813 3.684313 2.316629 18.787294 5e-06 -4e-06 10.751641 -0.479868 1.397905 -1e-06 -0.0 0.0 3.27381 0.305948 -0.58011 21.486834 11.830385 2.266133 8.162935 1e-06 -1e-06 18.399101 -3.798988 -4.940581 2e-06 1e-06 -2e-06 -6.17274 5.939091 -37.082333 -0.03036 -0.12616 17.632292 0.149995 2.901612 8.925408 1.691758 -1.978967 -5.415367 0.0 0.0 2e-06 -9.703772 -3.360135 4.748191 -0.150315 1.12845 36.308926 3.384547 4.806657 7.660025 -1.647791 0.797546 -30.385384 0.0 -0.0 -1e-06 
0.0 0.0 0.0 0.0 -0.0 0.0 5.723934 95.474396 10.390505 5.063974 1.056524 6.823057 -3.373104 -0.343525 -0.894129 -1.304196 0.293064 -5.140882 -1.160056 -1.926339 10.712621 2.208056 2.110427 2.017723 -0.647268 1.233122 -3.636052 1.232534 0.713142 -13.475915 7.7e-05 -2.3e-05 6e-06 0.016814 -0.009764 0.001971 0.711355 -3.749203 -10.597313 -0.685064 3.728368 -10.572082 -4.21501 -7.12522 14.49198 -70.603729 0.3561 9.240771 -0.419593 -27.50894 0.128537 -5.055483 8.361139 -4.739232 -5.882108 9.861288 0.702591 -10.936877 -0.360575 7.156207 0.0 8.774829 1e-06 -16.704741 18.584442 6.272016 -1.844033 2.498504 -2.507279 -10.163604 4.678946 4.62111 -20.97603 -4e-06 2e-06 -21.226295 2.451697 -3.594 -0.0 -7e-06 0.0 -1.362682 2.240798 -0.746325 -21.334921 0.58491 3.008325 -13.821218 -2e-06 3e-06 -23.887178 -0.24908 -0.839482 -60.749088 2.675646 -1.02921 -0.294025 1.679688 0.833256 -14.218214 0.093215 1.300581 -34.212063 -0.287566 0.967171 -20.033226 0.964536 1.212845 0.0 -1e-06 -0.0 -3.44039 0.788234 0.501655 -15.928191 -3.167311 2.999707 -6.33883 -2e-06 2e-06 -18.123455 3.648184 -4.905671 -5e-06 -0.0 -1e-06 16.294111 8.542815 16.1518 58.342064 5.200466 10.16275 -0.747675 32.239712 -0.080914 1.505172 -9.779874 -6.819894 2.243541 -5.255036 -3.180157 14.282887 -0.826595 6.952504 -2e-06 -12.690601 0.0 16.655354 -17.892008 2.469005 1.665666 -1.955921 -2.878299 4.727798 -4.170586 4.993925 11.020524 3e-06 -3e-06 12.109049 -3.735716 -2.866784 1e-06 -1e-06 -1e-06 1.291985 -1.928549 -1.498089 14.800125 0.567468 3.865609 14.242568 -1.341735 -6.660656 19.631962 0.143926 -0.648244 50.172432 -0.215485 -6.411439 0.353029 -1.51115 -0.03194 20.222786 3.684309 2.316631 18.78727 4e-06 -2e-06 10.751626 -0.479869 1.397907 -1e-06 -1e-06 1e-06 3.273807 0.305947 -0.580112 21.486809 11.830371 2.266134 8.162926 1e-06 0.0 18.39908 -3.798985 -4.940574 2e-06 0.0 -2e-06 -7.931306 5.87363 -35.327091 -0.036792 0.000473 23.048922 1.999678 2.123406 5.232817 1.638444 -1.989689 -3.654776 0.0 -0.0 2e-06 -12.03549 -4.086131 -0.171502 0.011496 1.182152 49.188641 4.311015 3.965697 15.540155 -1.544703 0.765861 -22.434855 -0.0 -0.0 -3e-06 
